<svg xmlns="http://www.w3.org/2000/svg" style="width: 100%" width="232.675" height="71.611" viewBox="0 0 61.562 18.947"
     xmlns:v="https://vecta.io/nano">
  <path fill="#00326f"
        d="M6.196 0L2.626.135C1.841.135 1.145.113.449.113.067.113 0 .135 0 .292c0 .269.09.292 1.1.292.628 0 .988.202.988 1.976v10.327c0 .337-.045.382-1.055.382-.494 0-.629.045-.629.269s.157.247.382.247l2.155-.09c.988 0 1.931.224 2.874.224 3.121 0 5.209-1.189 5.209-3.704 0-1.953-1.325-2.717-2.38-3.256-.449-.224-.876-.337-.876-.381 0-.067.494-.314.921-.606.719-.494 1.684-1.28 1.684-2.874S9.115 0 6.196 0zm38.466.026c-.117 0-.859.332-2.382.43-.332.019-.488 0-.488.234 0 .215.195.254.547.254.879 0 .996 0 .996 1.23v10.759c0 .351-.332.332-1.133.332-.469 0-.488.117-.488.254 0 .156.039.195.488.195l1.972-.039 1.074.039c.703 0 .84 0 .84-.195 0-.157.039-.274-.937-.274-.351 0-.488-.215-.488-1.835l.098-9.549c0-.586.098-1.289.098-1.523 0-.215-.098-.312-.195-.312zM28.45.046c-.176 0-1.328.429-2.734.429-.215 0-.254.078-.254.273 0 .137.078.196.878.196.527 0 .684.176.684 1.562l-.059 10.466c0 .293-.176.293-.839.293-.469 0-.566.098-.566.254 0 .176.117.195.566.195l1.66-.039 1.816.039c.43 0 .527 0 .527-.195 0-.157-.078-.254-.527-.254-1.211 0-1.171 0-1.171-.917v-1.23c0-.176.273-.313.586-.508.332-.215.605-.41.683-.41.117 0 .938 1.23 1.758 2.168s.996 1.425 1.348 1.425l1.093-.019.664.019c.429 0 .566-.039.566-.176 0-.156-.156-.254-.625-.254-.664 0-1.289-.957-1.953-1.757l-1.718-2.187c0-.137 1.211-.996 2.187-1.953.605-.586 1.269-1.425 1.269-1.601 0-.059-.078-.078-.234-.078l-1.621.058c-.234 0-.605-.058-.8-.058-.254 0-.351.039-.351.196 0 .176.098.215.39.215.859 0 .918.039.918.351 0 .41-.176.742-.937 1.464-.625.586-2.656 2.382-3.144 2.382-.058 0-.078-.059-.078-.137l.117-8.338.039-1.699c0-.117-.039-.176-.137-.176zM5.522.539c2.043 0 2.986 2.155 2.986 3.278 0 1.773-.741 2.2-1.392 2.694 0 0-.943-.135-2.312-.135-.539 0-.831.045-.831-.315V1.191c0-.449.067-.651 1.549-.651zm9.845 5.052c-1.777 0-3.632 1.64-3.632 4.394 0 3.261 2.382 4.042 3.983 4.042 1.582 0 3.242-1.231 3.242-1.328 0-.039-.059-.156-.156-.156-.117 0-.82.469-2.109.469-1.484 0-3.574-.723-3.574-3.417 0-.449.059-.547.371-.566 2.226-.137 4.178-.566 4.686-.684.528-.117.801-.195.801-.273 0-.156-.313-.625-.645-1.015-.703-.82-1.952-1.465-2.968-1.465zm22.769 0c-1.777 0-3.632 1.64-3.632 4.394 0 3.261 2.382 4.042 3.983 4.042 1.582 0 3.242-1.231 3.242-1.328 0-.039-.059-.156-.156-.156-.117 0-.82.469-2.109.469-1.484 0-3.573-.723-3.573-3.417 0-.449.059-.547.371-.566a30.32 30.32 0 0 0 4.686-.684c.527-.117.801-.195.801-.273 0-.156-.312-.625-.644-1.015-.703-.82-1.953-1.465-2.968-1.465zm11.263 0c-1.777 0-3.632 1.64-3.632 4.394 0 3.261 2.382 4.042 3.983 4.042 1.582 0 3.242-1.231 3.242-1.328 0-.039-.059-.156-.156-.156-.117 0-.82.469-2.109.469-1.484 0-3.573-.723-3.573-3.417 0-.449.059-.547.371-.566 2.226-.137 4.179-.566 4.686-.684.527-.117.801-.195.801-.273 0-.156-.312-.625-.644-1.015-.703-.82-1.953-1.465-2.968-1.465zm-27.236.137c-.313 0-.684.098-.996.098-.39 0-.762-.039-1.425-.039-.332 0-.313.059-.313.293 0 .215 0 .195.352.195 1.093 0 1.054.039 1.054 1.367v5.35c0 .273-.058.293-.859.293-.469 0-.488.039-.488.234s.039.195.488.195c.273 0 .937-.098 1.601-.098l2.207.098c.508 0 .527.02.527-.195 0-.176-.02-.234-.527-.234-1.445 0-1.503 0-1.503-.957V8.305c0-.82.429-1.289 1.562-1.289.977 0 1.211.801 1.484.801.117 0 .429-.859.429-1.054 0-.508-.898-.937-1.25-.937-.918 0-1.835 1.016-2.128 1.016-.078 0-.098-.137-.098-.312 0-.059.039-.488.039-.586 0-.157-.078-.215-.156-.215zm38.989.019c-.273 0-.801.078-1.093.078-.528 0-.879-.039-1.406-.039-.352 0-.41 0-.41.254 0 .195.078.196.684.196.664 0 .663.117.663.703 0 .273-.703 2.304-1.171 3.71-.312.918-.43 1.191-.566 1.191-.078 0-.313-.332-.469-.742-1.171-3.007-1.679-3.691-1.679-4.257 0-.449.117-.566.586-.566.41 0 .488-.019.488-.195 0-.215-.078-.293-.488-.293l-1.855.058c-.469 0-.605-.039-1.152-.039-.352 0-.41.098-.41.274s.019.195.41.195c.351 0 .488.098.976 1.269l2.636 6.366c0 .586-1.679 2.89-2.382 3.768-.664.84-1.582.957-1.582 1.074 0 .098.195.195.527.195.43 0 .566-.156 1.152-.234.43-.059.664-.078.879-.508l2.734-5.858c1.543-3.749 2.402-6.092 2.831-6.092.234 0 .508-.098.508-.273 0-.215-.098-.235-.41-.235zm-45.98.254c.898 0 2.05 1.445 2.05 1.933 0 .117-.019.156-.234.195-1.465.234-2.519.489-3.534.489-.235 0-.234-.02-.234-.117 0-.274.469-2.499 1.953-2.499zm22.768 0c.899 0 2.051 1.445 2.051 1.933 0 .117-.02.156-.234.195-1.465.234-2.519.489-3.534.489-.234 0-.234-.02-.234-.117 0-.274.469-2.499 1.952-2.499zm11.263 0c.898 0 2.051 1.445 2.051 1.933 0 .117-.02.156-.234.195-1.465.234-2.519.489-3.534.489-.234 0-.234-.02-.234-.117 0-.274.468-2.499 1.953-2.499zm-44.42.801c2.447 0 4.108 1.572 4.108 3.592 0 1.953-1.257 3.121-2.963 3.121-.719 0-1.437-.157-1.684-.427-.202-.225-.269-1.482-.269-1.684V7.386c0-.494.18-.584.808-.584zm11.132 9.165c-.461 0-.846.278-.846.739 0 .876 1.155.72 1.155 1.208 0 .194-.149.362-.45.362-.202 0-.457-.095-.671-.24l-.19.335a1.5 1.5 0 0 0 .861.29c.499 0 .915-.321.915-.762 0-.888-1.155-.621-1.155-1.212 0-.194.13-.335.381-.335.225 0 .4.076.594.175l.164-.328c-.221-.137-.484-.232-.758-.232zm9.205 0c-.785 0-1.135.56-1.135 1.345 0 .747.347 1.349 1.135 1.349s1.136-.602 1.136-1.349c0-.785-.351-1.345-1.136-1.345zm6.119 0c-.785 0-1.17.564-1.17 1.349 0 .8.351 1.345 1.155 1.345a1.4 1.4 0 0 0 .945-.389l-.232-.297c-.213.194-.457.301-.69.301-.484 0-.713-.346-.713-.964s.244-.96.705-.96c.248 0 .431.088.632.255l.236-.305c-.274-.225-.545-.335-.869-.335zm9.921 0c-.785 0-1.135.56-1.135 1.345 0 .747.347 1.349 1.135 1.349s1.136-.602 1.136-1.349c0-.785-.351-1.345-1.136-1.345zm-36.466.038l-.438.046v2.568h.454v-1.753h.008L5.82 18.62h.404v-2.611H5.77v1.715h-.011l-1.063-1.719zm5.818 0v2.614h1.585l.034-.385h-1.166v-.739h.979v-.385h-.979v-.72h1.101v-.385zm16.326 0v2.614h.453v-1.124h.961v-.385h-.961v-.72h1.071v-.385zm7.011 0l-.529.042-.918 2.572h.423l.217-.629h1.052l.217.629h.465l-.926-2.614zm4.359 0v2.614h.453v-1.124h.961v-.385h-.961v-.72h1.071v-.385zm7.14 0l-.438.046v2.568h.453v-1.753h.008l1.101 1.753h.404v-2.611h-.453v1.715h-.012l-1.063-1.719zm4.37 0l-.53.042-.919 2.572h.423l.217-.629h1.052l.217.629h.465l-.926-2.614zm-48.024.004v1.703c0 .587.324.949.964.949s.96-.362.96-.953v-1.7h-.454v1.73c0 .324-.137.537-.507.537s-.511-.213-.511-.541v-1.726h-.453zm5.174 0v2.611h.453v-2.611zm.899 0l.899 2.611h.499l.903-2.611h-.446l-.499 1.46s-.049.148-.179.594h-.023l-.175-.598-.499-1.456zm4.964 0v2.611h.453v-1.044h.217c.164 0 .259.153.335.309l.362.735h.499l-.499-.941c-.03-.061-.076-.13-.16-.179v-.007a.71.71 0 0 0 .492-.709c0-.454-.286-.774-.862-.774h-.838zm4.496 0v2.611h.453v-2.611zm.975 0v.389h.69v2.222h.453v-2.226h.659l.034-.385zm2.134 0l.823 1.494v1.117h.453v-1.117l.823-1.493h-.5l-.37.743s-.046.095-.175.385h-.011l-.187-.385-.347-.743h-.511zm14.806 0v2.611h1.543l.034-.385h-1.124v-2.225zm2.019 0v2.611h.453v-2.611zm5.525 0v2.611h.454v-1.044h.217c.164 0 .259.153.335.309l.362.735h.499l-.499-.941c-.03-.061-.076-.13-.16-.179v-.007a.71.71 0 0 0 .492-.709c0-.454-.286-.774-.862-.774zm4.759 0v2.611h.453v-2.611zm-22.327.343c.45 0 .667.392.667.96s-.221.964-.667.964-.671-.396-.671-.968.221-.956.671-.956zm16.04 0c.45 0 .667.392.667.96s-.221.964-.667.964-.671-.396-.671-.968.221-.956.671-.956zm-27.974.046h.373c.309 0 .408.145.408.389a.36.36 0 0 1-.4.408h-.381zm29.955 0h.374c.309 0 .408.145.408.389a.36.36 0 0 1-.4.408h-.381zm-9.582.069h.008l.21.625.202.576h-.827l.202-.575s.031-.084.206-.625zm15.869 0h.008l.21.625.202.576h-.827l.202-.575s.03-.084.206-.625z"/>
</svg>
