<svg xmlns="http://www.w3.org/2000/svg" width="232.675" height="71.611" viewBox="0 0 61.562 18.947" xmlns:v="https://vecta.io/nano"><g fill-rule="evenodd"><path fill="#fff" fill-opacity="0" d="M0 16.145h37.166v37.166H0z"/><path d="M32.633 40.349c-.433-.463-.408-.953-.408-.953v-11.07h-4.207v8.853c-.052.839-.874 1.053-1.33 1.039-.653-.021-1.03-.385-1.03-1.012V28.33H21.56v-.003l-2.888.003c-2.242 0-4.359.343-5.072 2.203l-.423-1.649c-.104-.324-.458-.557-.807-.557h-.55-5.482-1.295c-.105 0-.143.033-.088.108 0 0 .198.19.558.601.5.57.304 1.332.304 1.332L3.135 41.063h3.904l.563-2.35h3.767l.587 2.35h5.142c2.109 0 3.825-.215 4.674-1.528.633 1.197 1.994 1.76 4.396 1.554.837-.072 1.658-.463 2.011-1.083l.162.515c.141.311.426.541.833.541h3.93c.105 0 .143-.031.088-.106a45.63 45.63 0 0 0-.558-.606zM8.199 36.41L9.5 31.183l1.308 5.228zm24.52-7.309h.111v-.678h.241v-.098h-.593v.098h.241zm1.13-.776l-.239.644-.243-.644h-.183v.776h.111v-.671h.002l.256.671h.109l.256-.671h.002v.671h.111v-.776z" fill="#8b274c"/><path d="M13.444 31.421l.003-.027.06-.335.002-.01-.704-.425c-.034-.023-.079-.018-.109.01-.013.014-.02.033-.019.052s.013.037.026.05zm-.014 1.148l-.003-.03a4.25 4.25 0 0 1-.023-.494l-1.315-.526c-.036-.016-.084-.005-.105.028-.01.016-.013.035-.009.053s.018.036.036.045zm-1.928.079l2.227.974-.017-.035a3.09 3.09 0 0 1-.217-.632l-.002-.009-1.939-.432c-.039-.01-.082.007-.096.042-.007.017-.007.037.001.054s.024.031.043.037zm5.556 3.187c-1.221-.419-2.605-.894-3.266-2.092l-.004-.007-2.564-.161c-.04-.004-.082.021-.089.059-.004.018 0 .037.011.052s.031.029.052.032l2.569.66c.008.002.018.004.021.011.003.028-.01.036-.025.035l-2.66.249c-.041.002-.077.034-.077.073 0 .018.008.036.021.048s.035.023.056.024l2.657.25c.014.001.026.008.027.019-.009.023-.014.025-.021.026l-2.575.661c-.019.004-.035.015-.046.031s-.015.034-.012.052c.008.037.05.062.09.059l2.663-.167c.014-.003.028.003.032.015-.006.024-.011.028-.016.03l-2.401 1.048c-.019.008-.035.023-.045.041s-.008.035-.001.052c.014.035.06.052.1.044l2.587-.58c.023-.005.032.002.038.013-.002.022-.007.027-.013.029l-2.157 1.403c-.018.01-.032.027-.038.047s-.002.038.008.054c.021.033.072.045.107.027l2.433-.973c.011-.007.028-.005.036.006s.007.014.005.021l-1.86 1.729c-.015.014-.025.033-.028.053s.005.036.018.051a.09.09 0 0 0 .111.009l2.208-1.337c.011-.009.026-.009.037 0s.01.017.01.02l-1.501 2c-.011.013-.016.03-.013.047s.013.037.029.049c.031.024.082.018.109-.008l1.915-1.659c.008-.01.027-.014.038-.007s.013.014.014.02l-1.088 2.194c-.009.016-.012.035-.007.053s.019.036.037.046c.036.019.086.006.107-.026l1.579-1.944c.316.145.625.238.873.262.746.072 1.444-.096 1.821-.438.196-.178.295-.391.295-.633 0-.913-1.024-1.265-2.209-1.672zm5.105 2.924l-.008.026-.119.322-.004.01.605.526c.031.026.075.028.108.004.016-.012.026-.03.028-.05s-.005-.036-.016-.051zm.2-1.164l-.002.03-.055.503-.002.009 1.213.735c.031.023.08.017.107-.012.013-.014.02-.033.019-.053s-.011-.035-.024-.047zm-.029-1.034l.004.031c.026.173.038.353.038.538l-.001.099 1.859.745c.035.016.083.004.104-.028.01-.016.013-.035.008-.053s-.018-.035-.034-.045zm2.94-1.861c-.015-.014-.034-.023-.054-.024l-2.659-.25c-.013.001-.024-.008-.026-.02.009-.022.014-.025.02-.026l2.569-.659c.021-.004.039-.016.051-.033s.015-.034.011-.052c-.008-.037-.048-.062-.09-.059l-2.665.168c-.013.003-.026-.003-.03-.016.005-.023.009-.027.015-.028l2.405-1.049c.019-.007.035-.021.043-.04s.009-.036.002-.053c-.014-.035-.061-.051-.1-.042l-2.594.579c-.013.006-.031.003-.036-.008.002-.024.006-.028.012-.032l2.166-1.408c.017-.01.03-.027.036-.046s.001-.038-.009-.053c-.021-.032-.068-.044-.106-.027l-2.445.977c-.012.008-.026.006-.034-.004-.004-.024-.001-.028.003-.031l1.861-1.726c.014-.013.023-.03.026-.049s-.005-.038-.019-.052c-.027-.029-.073-.035-.104-.012l-2.226 1.345c-.011.009-.026.009-.036-.001-.007-.019-.004-.026 0-.03l1.498-1.988c.012-.015.018-.033.018-.052s-.012-.038-.028-.05c-.032-.024-.085-.02-.111.008l-1.924 1.667c-.009.011-.024.016-.035.008-.012-.02-.012-.025-.009-.03l1.092-2.194c.009-.016.012-.035.007-.053s-.019-.036-.038-.046c-.036-.019-.085-.008-.106.024l-1.607 1.975c-.444-.217-1.187-.345-1.532-.345a.77.77 0 0 1-.03-.001c-.706-.017-1.232.122-1.52.403-.166.162-.251.372-.251.623 0 .345.195.628.613.89.374.234.892.43 1.442.638.717.271 1.529.577 2.195 1.036.764.526 1.213 1.17 1.376 1.968l.002.009 2.461.551c.038.01.077-.009.093-.045.007-.017.007-.037-.002-.053s-.024-.03-.043-.038l-2.4-1.049c-.017-.016-.018-.024-.016-.03.004-.012.018-.019.032-.015l2.664.169c.041.003.08-.022.087-.06.004-.018-.001-.037-.011-.052s-.03-.028-.05-.032l-2.568-.659c-.022-.013-.023-.019-.023-.025.002-.013.014-.023.028-.022l2.656-.249c.021-.001.042-.01.056-.024s.021-.031.021-.049-.007-.035-.021-.049z" fill="#ecb73a"/></g><path fill="#00326f" d="M6.196 0L2.626.135C1.841.135 1.145.113.449.113.067.113 0 .135 0 .292c0 .269.09.292 1.1.292.628 0 .988.202.988 1.976v10.327c0 .337-.045.382-1.055.382-.494 0-.629.045-.629.269s.157.247.382.247l2.155-.09c.988 0 1.931.224 2.874.224 3.121 0 5.209-1.189 5.209-3.704 0-1.953-1.325-2.717-2.38-3.256-.449-.224-.876-.337-.876-.381 0-.067.494-.314.921-.606.719-.494 1.684-1.28 1.684-2.874S9.115 0 6.196 0zm38.466.026c-.117 0-.859.332-2.382.43-.332.019-.488 0-.488.234 0 .215.195.254.547.254.879 0 .996 0 .996 1.23v10.759c0 .351-.332.332-1.133.332-.469 0-.488.117-.488.254 0 .156.039.195.488.195l1.972-.039 1.074.039c.703 0 .84 0 .84-.195 0-.157.039-.274-.937-.274-.351 0-.488-.215-.488-1.835l.098-9.549c0-.586.098-1.289.098-1.523 0-.215-.098-.312-.195-.312zM28.45.046c-.176 0-1.328.429-2.734.429-.215 0-.254.078-.254.273 0 .137.078.196.878.196.527 0 .684.176.684 1.562l-.059 10.466c0 .293-.176.293-.839.293-.469 0-.566.098-.566.254 0 .176.117.195.566.195l1.66-.039 1.816.039c.43 0 .527 0 .527-.195 0-.157-.078-.254-.527-.254-1.211 0-1.171 0-1.171-.917v-1.23c0-.176.273-.313.586-.508.332-.215.605-.41.683-.41.117 0 .938 1.23 1.758 2.168s.996 1.425 1.348 1.425l1.093-.019.664.019c.429 0 .566-.039.566-.176 0-.156-.156-.254-.625-.254-.664 0-1.289-.957-1.953-1.757l-1.718-2.187c0-.137 1.211-.996 2.187-1.953.605-.586 1.269-1.425 1.269-1.601 0-.059-.078-.078-.234-.078l-1.621.058c-.234 0-.605-.058-.8-.058-.254 0-.351.039-.351.196 0 .176.098.215.39.215.859 0 .918.039.918.351 0 .41-.176.742-.937 1.464-.625.586-2.656 2.382-3.144 2.382-.058 0-.078-.059-.078-.137l.117-8.338.039-1.699c0-.117-.039-.176-.137-.176zM5.522.539c2.043 0 2.986 2.155 2.986 3.278 0 1.773-.741 2.2-1.392 2.694 0 0-.943-.135-2.312-.135-.539 0-.831.045-.831-.315V1.191c0-.449.067-.651 1.549-.651zm9.845 5.052c-1.777 0-3.632 1.64-3.632 4.394 0 3.261 2.382 4.042 3.983 4.042 1.582 0 3.242-1.231 3.242-1.328 0-.039-.059-.156-.156-.156-.117 0-.82.469-2.109.469-1.484 0-3.574-.723-3.574-3.417 0-.449.059-.547.371-.566 2.226-.137 4.178-.566 4.686-.684.528-.117.801-.195.801-.273 0-.156-.313-.625-.645-1.015-.703-.82-1.952-1.465-2.968-1.465zm22.769 0c-1.777 0-3.632 1.64-3.632 4.394 0 3.261 2.382 4.042 3.983 4.042 1.582 0 3.242-1.231 3.242-1.328 0-.039-.059-.156-.156-.156-.117 0-.82.469-2.109.469-1.484 0-3.573-.723-3.573-3.417 0-.449.059-.547.371-.566a30.32 30.32 0 0 0 4.686-.684c.527-.117.801-.195.801-.273 0-.156-.312-.625-.644-1.015-.703-.82-1.953-1.465-2.968-1.465zm11.263 0c-1.777 0-3.632 1.64-3.632 4.394 0 3.261 2.382 4.042 3.983 4.042 1.582 0 3.242-1.231 3.242-1.328 0-.039-.059-.156-.156-.156-.117 0-.82.469-2.109.469-1.484 0-3.573-.723-3.573-3.417 0-.449.059-.547.371-.566 2.226-.137 4.179-.566 4.686-.684.527-.117.801-.195.801-.273 0-.156-.312-.625-.644-1.015-.703-.82-1.953-1.465-2.968-1.465zm-27.236.137c-.313 0-.684.098-.996.098-.39 0-.762-.039-1.425-.039-.332 0-.313.059-.313.293 0 .215 0 .195.352.195 1.093 0 1.054.039 1.054 1.367v5.35c0 .273-.058.293-.859.293-.469 0-.488.039-.488.234s.039.195.488.195c.273 0 .937-.098 1.601-.098l2.207.098c.508 0 .527.02.527-.195 0-.176-.02-.234-.527-.234-1.445 0-1.503 0-1.503-.957V8.305c0-.82.429-1.289 1.562-1.289.977 0 1.211.801 1.484.801.117 0 .429-.859.429-1.054 0-.508-.898-.937-1.25-.937-.918 0-1.835 1.016-2.128 1.016-.078 0-.098-.137-.098-.312 0-.059.039-.488.039-.586 0-.157-.078-.215-.156-.215zm38.989.019c-.273 0-.801.078-1.093.078-.528 0-.879-.039-1.406-.039-.352 0-.41 0-.41.254 0 .195.078.196.684.196.664 0 .663.117.663.703 0 .273-.703 2.304-1.171 3.71-.312.918-.43 1.191-.566 1.191-.078 0-.313-.332-.469-.742-1.171-3.007-1.679-3.691-1.679-4.257 0-.449.117-.566.586-.566.41 0 .488-.019.488-.195 0-.215-.078-.293-.488-.293l-1.855.058c-.469 0-.605-.039-1.152-.039-.352 0-.41.098-.41.274s.019.195.41.195c.351 0 .488.098.976 1.269l2.636 6.366c0 .586-1.679 2.89-2.382 3.768-.664.84-1.582.957-1.582 1.074 0 .098.195.195.527.195.43 0 .566-.156 1.152-.234.43-.059.664-.078.879-.508l2.734-5.858c1.543-3.749 2.402-6.092 2.831-6.092.234 0 .508-.098.508-.273 0-.215-.098-.235-.41-.235zm-45.98.254c.898 0 2.05 1.445 2.05 1.933 0 .117-.019.156-.234.195-1.465.234-2.519.489-3.534.489-.235 0-.234-.02-.234-.117 0-.274.469-2.499 1.953-2.499zm22.768 0c.899 0 2.051 1.445 2.051 1.933 0 .117-.02.156-.234.195-1.465.234-2.519.489-3.534.489-.234 0-.234-.02-.234-.117 0-.274.469-2.499 1.952-2.499zm11.263 0c.898 0 2.051 1.445 2.051 1.933 0 .117-.02.156-.234.195-1.465.234-2.519.489-3.534.489-.234 0-.234-.02-.234-.117 0-.274.468-2.499 1.953-2.499zm-44.42.801c2.447 0 4.108 1.572 4.108 3.592 0 1.953-1.257 3.121-2.963 3.121-.719 0-1.437-.157-1.684-.427-.202-.225-.269-1.482-.269-1.684V7.386c0-.494.18-.584.808-.584zm11.132 9.165c-.461 0-.846.278-.846.739 0 .876 1.155.72 1.155 1.208 0 .194-.149.362-.45.362-.202 0-.457-.095-.671-.24l-.19.335a1.5 1.5 0 0 0 .861.29c.499 0 .915-.321.915-.762 0-.888-1.155-.621-1.155-1.212 0-.194.13-.335.381-.335.225 0 .4.076.594.175l.164-.328c-.221-.137-.484-.232-.758-.232zm9.205 0c-.785 0-1.135.56-1.135 1.345 0 .747.347 1.349 1.135 1.349s1.136-.602 1.136-1.349c0-.785-.351-1.345-1.136-1.345zm6.119 0c-.785 0-1.17.564-1.17 1.349 0 .8.351 1.345 1.155 1.345a1.4 1.4 0 0 0 .945-.389l-.232-.297c-.213.194-.457.301-.69.301-.484 0-.713-.346-.713-.964s.244-.96.705-.96c.248 0 .431.088.632.255l.236-.305c-.274-.225-.545-.335-.869-.335zm9.921 0c-.785 0-1.135.56-1.135 1.345 0 .747.347 1.349 1.135 1.349s1.136-.602 1.136-1.349c0-.785-.351-1.345-1.136-1.345zm-36.466.038l-.438.046v2.568h.454v-1.753h.008L5.82 18.62h.404v-2.611H5.77v1.715h-.011l-1.063-1.719zm5.818 0v2.614h1.585l.034-.385h-1.166v-.739h.979v-.385h-.979v-.72h1.101v-.385zm16.326 0v2.614h.453v-1.124h.961v-.385h-.961v-.72h1.071v-.385zm7.011 0l-.529.042-.918 2.572h.423l.217-.629h1.052l.217.629h.465l-.926-2.614zm4.359 0v2.614h.453v-1.124h.961v-.385h-.961v-.72h1.071v-.385zm7.14 0l-.438.046v2.568h.453v-1.753h.008l1.101 1.753h.404v-2.611h-.453v1.715h-.012l-1.063-1.719zm4.37 0l-.53.042-.919 2.572h.423l.217-.629h1.052l.217.629h.465l-.926-2.614zm-48.024.004v1.703c0 .587.324.949.964.949s.96-.362.96-.953v-1.7h-.454v1.73c0 .324-.137.537-.507.537s-.511-.213-.511-.541v-1.726h-.453zm5.174 0v2.611h.453v-2.611zm.899 0l.899 2.611h.499l.903-2.611h-.446l-.499 1.46s-.049.148-.179.594h-.023l-.175-.598-.499-1.456zm4.964 0v2.611h.453v-1.044h.217c.164 0 .259.153.335.309l.362.735h.499l-.499-.941c-.03-.061-.076-.13-.16-.179v-.007a.71.71 0 0 0 .492-.709c0-.454-.286-.774-.862-.774h-.838zm4.496 0v2.611h.453v-2.611zm.975 0v.389h.69v2.222h.453v-2.226h.659l.034-.385zm2.134 0l.823 1.494v1.117h.453v-1.117l.823-1.493h-.5l-.37.743s-.046.095-.175.385h-.011l-.187-.385-.347-.743h-.511zm14.806 0v2.611h1.543l.034-.385h-1.124v-2.225zm2.019 0v2.611h.453v-2.611zm5.525 0v2.611h.454v-1.044h.217c.164 0 .259.153.335.309l.362.735h.499l-.499-.941c-.03-.061-.076-.13-.16-.179v-.007a.71.71 0 0 0 .492-.709c0-.454-.286-.774-.862-.774zm4.759 0v2.611h.453v-2.611zm-22.327.343c.45 0 .667.392.667.96s-.221.964-.667.964-.671-.396-.671-.968.221-.956.671-.956zm16.04 0c.45 0 .667.392.667.96s-.221.964-.667.964-.671-.396-.671-.968.221-.956.671-.956zm-27.974.046h.373c.309 0 .408.145.408.389a.36.36 0 0 1-.4.408h-.381zm29.955 0h.374c.309 0 .408.145.408.389a.36.36 0 0 1-.4.408h-.381zm-9.582.069h.008l.21.625.202.576h-.827l.202-.575s.031-.084.206-.625zm15.869 0h.008l.21.625.202.576h-.827l.202-.575s.03-.084.206-.625z"/></svg>